<svg viewBox="0 0 395.52 247.2" height="247.2" width="395.52">
    <g><svg></svg></g>
    <g><svg viewBox="0 0 395.52 247.2" height="247.2" width="395.52">
            <g transform="matrix(1,0,0,1,75.54432,66.67522732246829)"><svg
                    viewBox="0 0 244.43135999999998 113.84954535506343" height="113.84954535506343"
                    width="244.43135999999998">
                    <g><svg viewBox="0 0 479.10869735319903 223.15592962097168" height="113.84954535506343"
                            width="244.43135999999998">
                            <g transform="matrix(1,0,0,1,0,71.20967074012194)"><svg
                                    viewBox="0 0 244.43135999999998 80.7365881407278" height="80.7365881407278"
                                    width="244.43135999999998">
                                    <g><svg viewBox="0 0 244.43135999999998 80.7365881407278" height="80.7365881407278"
                                            width="244.43135999999998">
                                            <g><svg viewBox="0 0 244.43135999999998 48.80380780861831"
                                                    height="48.80380780861831" width="244.43135999999998">
                                                    <g transform="matrix(1,0,0,1,0,0)"><svg width="244.43135999999998"
                                                            viewBox="-0.8500000238418579 -55.400001525878906 326.02001953125 65.0999984741211"
                                                            height="48.80380780861831" data-palette-color="#ff4057">
                                                            <path
                                                                d="M37.85-41.45Q39.95-41.45 39.95-39L39.95-39Q39.95-37.8 39.58-36.63 39.2-35.45 38.15-33.75L38.15-33.75Q36.85-31.55 33.15-26L33.15-26Q27.7-17.75 24.18-11.88 20.65-6 18.6-0.75L18.6-0.75Q18.35-0.05 18.18 0.1 18 0.25 17.5 0.3L17.5 0.3Q15.8 0.45 15.15 0.55 14.5 0.65 14.1 1L14.1 1Q13.8 0.85 13.6 0.65L13.6 0.65Q14.3-2.7 14.3-11.65L14.3-11.65 14.3-14.55Q14.3-21.55 13.85-25.3 13.4-29.05 11.88-31.05 10.35-33.05 7.15-33.05L7.15-33.05Q5-33.05 3.08-32.23 1.15-31.4-0.3-29.9L-0.3-29.9Q-0.85-30.2-0.85-30.85L-0.85-30.85Q-0.85-31.95 0.63-33 2.1-34.05 4.38-34.73 6.65-35.4 8.9-35.4L8.9-35.4Q12.65-35.4 14.35-33.2 16.05-31 16.5-26.58 16.95-22.15 16.95-12.95L16.95-12.95Q16.95-9.3 16.93-8 16.9-6.7 16.9-6.25L16.9-6.25Q16.85-5.75 16.85-4.5L16.85-4.5 20.55-10.25Q27.85-21.5 32.18-28.9 36.5-36.3 36.5-39.05L36.5-39.05Q36.5-40.25 35.95-41.05L35.95-41.05Q36.05-41.1 36.63-41.28 37.2-41.45 37.85-41.45L37.85-41.45ZM65.2-11.55Q65.85-11.55 65.85-10.25L65.85-10.25Q65.85-7.95 63.82-5.4 61.8-2.85 58.92-1.13 56.05 0.6 53.65 0.6L53.65 0.6Q51.7 0.6 50.65-0.6 49.6-1.8 49.4-3.7L49.4-3.7Q48.15-1.9 46.25-0.75 44.35 0.4 42.85 0.4L42.85 0.4Q41.55 0.4 40.27-0.48 39-1.35 38.2-2.63 37.4-3.9 37.35-5.05L37.35-5.05 39.8-15.15Q40.1-16.35 41.32-17.73 42.55-19.1 44.3-20 46.05-20.9 47.85-20.9L47.85-20.9Q50.15-20.9 51.9-19.35L51.9-19.35Q52.35-20.55 52.57-20.85 52.8-21.15 53.25-21.2L53.25-21.2 55.7-21.45 55.85-21.35Q54.85-20.55 54.4-18.85L54.4-18.85Q52.85-13.05 52.27-10.3 51.7-7.55 51.7-5.45L51.7-5.45Q51.7-3.35 52.25-2.38 52.8-1.4 54.1-1.4L54.1-1.4Q55.7-1.4 57.92-2.7 60.15-4 62.15-6.33 64.15-8.65 65.2-11.55L65.2-11.55ZM43.05-1.95Q43.9-1.95 45.12-2.55 46.35-3.15 47.42-4.28 48.5-5.4 48.9-6.85L48.9-6.85 49.85-10.95Q50.05-11.95 50.55-14.18 51.05-16.4 51.35-17.6L51.35-17.6Q49.95-19 47.95-19L47.95-19Q46.4-19 45.15-18.18 43.9-17.35 43.1-16.18 42.3-15 42.1-14.1L42.1-14.1 40.1-5.2Q40.2-3.95 41.1-2.95 42-1.95 43.05-1.95L43.05-1.95ZM84.15-14Q84.65-14 84.95-13.53 85.25-13.05 85.25-12.35L85.25-12.35Q85.25-11.45 84.75-10.45L84.75-10.45Q83.35-7.5 80.75-5.03 78.15-2.55 75.12-1.1 72.1 0.35 69.5 0.35L69.5 0.35Q64.2 0.35 64.2-5.8L64.2-5.8Q64.2-10.1 66.55-19.63 68.9-29.15 73.35-44.9L73.35-44.9Q74.3-48.15 75.42-49.7 76.55-51.25 78-51.25L78-51.25Q79.05-51.25 80.02-50.53 81-49.8 81.65-48.3 82.3-46.8 82.3-44.6L82.3-44.6Q82.3-41.05 80.62-35.6 78.95-30.15 75.6-24.1 72.25-18.05 67.55-12.9L67.55-12.9Q66.7-8.5 66.7-6.35L66.7-6.35Q66.7-3.95 67.67-2.93 68.65-1.9 70.4-1.9L70.4-1.9Q72.85-1.9 75.62-3.55 78.4-5.2 80.7-8 83-10.8 84.15-14L84.15-14ZM74.65-41.75Q70.45-26.65 68.3-16.7L68.3-16.7Q72-21.35 74.67-26.85 77.35-32.35 78.67-37.15 80-41.95 80-44.7L80-44.7Q80-46.25 79.55-47.38 79.1-48.5 78.05-48.5L78.05-48.5Q77.45-48.5 76.62-47.25 75.8-46 74.65-41.75L74.65-41.75ZM103.04-11.95Q103.94-11.8 103.94-10.95L103.94-10.95Q103.94-8.95 101.37-6.28 98.79-3.6 95.29-1.68 91.79 0.25 89.44 0.25L89.44 0.25Q87.19 0.25 85.54-0.93 83.89-2.1 83.02-3.55 82.14-5 82.14-5.7L82.14-5.7Q82.94-8.55 83.89-13.6L83.89-13.6 84.44-16.4Q84.64-17.4 85.89-18.48 87.14-19.55 88.69-20.28 90.24-21 91.19-21L91.19-21Q91.94-21 93.02-20.53 94.09-20.05 94.92-19.05 95.74-18.05 95.74-16.5L95.74-16.5Q95.74-14.7 94.54-13.1 93.34-11.5 90.99-10.5 88.64-9.5 85.34-9.5L85.34-9.5 84.64-6.15Q84.64-5.7 85.17-4.65 85.69-3.6 86.87-2.75 88.04-1.9 89.84-1.9L89.84-1.9Q92.24-1.9 94.89-3.48 97.54-5.05 99.74-7.4 101.94-9.75 103.04-11.95L103.04-11.95ZM90.79-18.95Q90.19-18.95 89.24-18.45 88.29-17.95 87.52-17.2 86.74-16.45 86.59-15.8L86.59-15.8Q86.09-13.55 85.69-11.25L85.69-11.25Q89.54-11.4 91.49-12.78 93.44-14.15 93.44-15.9L93.44-15.9Q93.44-17.15 92.54-18.05 91.64-18.95 90.79-18.95L90.79-18.95ZM125.14-12.2Q125.64-12.2 125.87-11.78 126.09-11.35 126.09-10.8L126.09-10.8Q126.09-9 124.19-6.25 122.29-3.5 119.37-1.45 116.44 0.6 113.59 0.6L113.59 0.6Q111.79 0.6 110.82-0.3 109.84-1.2 109.84-3.05L109.84-3.05Q109.84-5.6 111.24-9.98 112.64-14.35 113.79-17.25L113.79-17.25Q113.59-17.55 113.39-17.55L113.39-17.55Q113.19-17.55 112.94-17.4L112.94-17.4Q112.04-16.85 109.99-14.95 107.94-13.05 105.99-10.95 104.04-8.85 103.34-7.55L103.34-7.55Q102.54-5.4 102.34-4.83 102.14-4.25 101.94-2.95L101.94-2.95 101.49-0.7Q101.44-0.55 101.39-0.33 101.34-0.1 101.27-0.05 101.19 0 101.04 0L101.04 0Q100.59 0 99.87-0.1 99.14-0.2 99.14-0.4L99.14-0.4Q99.14-1 99.49-2.35 99.84-3.7 100.19-4.8 100.54-5.9 100.74-6.5L100.74-6.5 101.19-7.9Q102.64-12.9 103.17-15.18 103.69-17.45 104.19-20.25L104.19-20.25Q104.24-20.75 104.89-20.75L104.89-20.75Q105.34-20.75 105.92-20.53 106.49-20.3 106.59-19.9L106.59-19.9Q106.39-19 105.87-16.85 105.34-14.7 104.59-12.1L104.59-12.1Q107.49-15.35 110.62-18 113.74-20.65 114.79-20.65L114.79-20.65Q115.29-20.65 115.99-20.15 116.69-19.65 116.84-19.2L116.84-19.2Q115.24-14.9 113.79-9.83 112.34-4.75 112.34-3.15L112.34-3.15Q112.34-1.4 114.34-1.4L114.34-1.4Q117.29-1.4 120.32-4.7 123.34-8 125.14-12.2L125.14-12.2ZM142.49-8.3Q142.74-7.95 142.74-7.45L142.74-7.45Q142.74-7.05 142.59-6.75 142.44-6.45 142.09-6L142.09-6Q140.79-4.45 138.46-2.93 136.14-1.4 133.59-0.45 131.04 0.5 129.14 0.5L129.14 0.5Q126.99 0.5 125.56-0.83 124.14-2.15 124.14-4.8L124.14-4.8Q124.14-8.15 126.54-17.4L126.54-17.4 121.24-17.2Q121.14-17.25 120.96-17.38 120.79-17.5 120.74-17.6L120.74-17.6Q120.89-17.85 121.29-18.6 121.69-19.35 121.99-19.65L121.99-19.65 127.14-19.6Q128.79-25.7 130.94-32.15L130.94-32.15Q131.84-32.85 133.24-33.68 134.64-34.5 134.94-34.5L134.94-34.5Q135.39-34.3 135.49-33.95L135.49-33.95Q134.59-33.6 134.09-33.02 133.59-32.45 133.09-31.15L133.09-31.15Q131.64-27.45 129.59-19.6L129.59-19.6 142.34-19.55 142.39-18.75Q142.39-18.35 142.24-18.2 142.09-18.05 141.54-18L141.54-18Q140.84-17.95 129.04-17.5L129.04-17.5Q126.74-8.1 126.74-4.95L126.74-4.95Q126.74-3.2 127.59-2.38 128.44-1.55 130.19-1.55L130.19-1.55Q135.29-1.55 142.49-8.3L142.49-8.3ZM145.19 0.35Q143.44 0.35 142.06-0.83 140.69-2 140.69-4.3L140.69-4.3Q141.44-6.7 143.29-14.95L143.29-14.95Q144.19-19 144.39-19.8L144.39-19.8Q145.04-20.9 146.19-20.9L146.19-20.9Q146.94-20.9 146.94-20.4L146.94-20.4Q146.59-19.15 145.96-16.43 145.34-13.7 144.99-12.15L144.99-12.15Q143.64-5.95 143.14-4.2L143.14-4.2Q143.14-3.05 143.81-2.43 144.49-1.8 145.59-1.8L145.59-1.8Q148.09-1.8 150.61-3.58 153.14-5.35 155.06-7.7 156.99-10.05 157.94-11.75L157.94-11.75Q158.24-11.65 158.34-11.43 158.44-11.2 158.44-10.65L158.44-10.65Q158.44-9.9 157.94-9.1L157.94-9.1Q155.24-4.85 151.89-2.25 148.54 0.35 145.19 0.35L145.19 0.35ZM147.49-27.15Q146.79-27.15 146.39-27.63 145.99-28.1 145.99-28.85L145.99-28.85Q145.99-29.85 146.64-30.68 147.29-31.5 148.29-31.5L148.29-31.5Q149.09-31.5 149.46-31 149.84-30.5 149.84-29.8L149.84-29.8Q149.84-28.8 149.16-27.98 148.49-27.15 147.49-27.15L147.49-27.15ZM179.53-12.2Q180.03-12.2 180.26-11.78 180.48-11.35 180.48-10.8L180.48-10.8Q180.48-9 178.58-6.25 176.68-3.5 173.76-1.45 170.83 0.6 167.98 0.6L167.98 0.6Q166.18 0.6 165.21-0.3 164.23-1.2 164.23-3.05L164.23-3.05Q164.23-5.6 165.63-9.98 167.03-14.35 168.18-17.25L168.18-17.25Q167.98-17.55 167.78-17.55L167.78-17.55Q167.58-17.55 167.33-17.4L167.33-17.4Q166.43-16.85 164.38-14.95 162.33-13.05 160.38-10.95 158.43-8.85 157.73-7.55L157.73-7.55Q156.93-5.4 156.73-4.83 156.53-4.25 156.33-2.95L156.33-2.95 155.88-0.7Q155.83-0.55 155.78-0.33 155.73-0.1 155.66-0.05 155.58 0 155.43 0L155.43 0Q154.98 0 154.26-0.1 153.53-0.2 153.53-0.4L153.53-0.4Q153.53-1 153.88-2.35 154.23-3.7 154.58-4.8 154.93-5.9 155.13-6.5L155.13-6.5 155.58-7.9Q157.03-12.9 157.56-15.18 158.08-17.45 158.58-20.25L158.58-20.25Q158.63-20.75 159.28-20.75L159.28-20.75Q159.73-20.75 160.31-20.53 160.88-20.3 160.98-19.9L160.98-19.9Q160.78-19 160.26-16.85 159.73-14.7 158.98-12.1L158.98-12.1Q161.88-15.35 165.01-18 168.13-20.65 169.18-20.65L169.18-20.65Q169.68-20.65 170.38-20.15 171.08-19.65 171.23-19.2L171.23-19.2Q169.63-14.9 168.18-9.83 166.73-4.75 166.73-3.15L166.73-3.15Q166.73-1.4 168.73-1.4L168.73-1.4Q171.68-1.4 174.71-4.7 177.73-8 179.53-12.2L179.53-12.2ZM256.23 3.45Q256.48 3.6 256.65 4 256.83 4.4 256.83 4.8L256.83 4.8Q256.83 6.2 255.05 7.33 253.28 8.45 250.45 9.08 247.63 9.7 244.63 9.7L244.63 9.7Q237.88 9.7 229.5 6.45 221.13 3.2 213.3-2.6 205.48-8.4 200.38-15.6L200.38-15.6Q198.53-8 197.08-1.25L197.08-1.25Q196.88-0.45 196.65-0.25 196.43-0.05 195.83 0L195.83 0Q194.98 0.05 194.48 0.18 193.98 0.3 193.63 0.6L193.63 0.6Q193.08 0.6 193.08 0.25L193.08 0.25Q194.88-4.15 196.8-11.45 198.73-18.75 200.15-25.38 201.58-32 201.58-32.7L201.58-32.7Q201.58-32.85 201.45-33.02 201.33-33.2 201.03-33.2L201.03-33.2Q200.13-33.2 195.88-32.95L195.88-32.95Q193.18-32.75 192.48-32.75L192.48-32.75Q191.68-32.75 191.43-32.88 191.18-33 191.18-33.4L191.18-33.4Q191.18-34.15 191.55-35.23 191.93-36.3 192.48-36.3L192.48-36.3Q192.58-35.45 194.28-35.2 195.98-34.95 198.78-34.95L198.78-34.95Q200.98-34.95 202.85-35.08 204.73-35.2 206.43-35.35L206.43-35.35 209.18-35.6Q209.18-34.85 208.88-33.5L208.88-33.5 205.33-33.4Q205.03-33.4 204.78-33.23 204.53-33.05 204.48-32.75L204.48-32.75Q202.93-26.4 200.88-17.75L200.88-17.75Q203.33-19.55 210.08-25L210.08-25Q214.58-28.65 217.83-31.18 221.08-33.7 224.43-35.9L224.43-35.9 224.73-35.9Q225.73-35.35 227.28-34.85L227.28-34.85 227.28-34.45Q226.13-34.65 217.1-28 208.08-21.35 202.28-16.65L202.28-16.65Q207.78-9.3 215.03-3.78 222.28 1.75 229.93 4.73 237.58 7.7 244.28 7.7L244.28 7.7Q247.28 7.7 249.45 7.13 251.63 6.55 253.08 5.68 254.53 4.8 256.23 3.45L256.23 3.45ZM256.33-17.65Q256.83-17.5 256.83-16.65L256.83-16.65Q256.83-15.4 255.83-14.08 254.83-12.75 253.1-11.9 251.38-11.05 249.33-11.05L249.33-11.05Q246.58-11.05 244.48-12.55L244.48-12.55Q244.18-11.1 243.73-9.6L243.73-9.6Q243.58-9.05 243.08-7.08 242.58-5.1 242.38-3.55L242.38-3.55Q242.03-2.75 240.98-1.83 239.93-0.9 238.48-0.25 237.03 0.4 235.63 0.4L235.63 0.4Q234.08 0.4 232.63-0.4 231.18-1.2 230.25-2.55 229.33-3.9 229.33-5.55L229.33-5.55Q230.03-7.65 230.48-9.5 230.93-11.35 231.33-13.25L231.33-13.25 231.83-15.75Q232.08-16.9 233.18-18.03 234.28-19.15 235.85-19.88 237.43-20.6 239.03-20.6L239.03-20.6Q239.63-20.6 240.73-20.4L240.73-20.4Q240.88-21.55 241.25-22 241.63-22.45 242.48-22.45L242.48-22.45Q242.98-22.45 243.63-22.3L243.63-22.3Q243.38-20.9 243.38-19.9L243.38-19.9Q243.38-17 245.13-15 246.88-13 249.88-13L249.88-13Q252.13-13 253.75-14.2 255.38-15.4 256.33-17.65L256.33-17.65ZM240.18-4.4Q240.58-6.4 241.33-8.95L241.33-8.95Q242.33-12.3 242.63-14.35L242.63-14.35Q241.53-15.75 241.13-17.75L241.13-17.75Q241.13-17.95 241.05-18.07 240.98-18.2 240.73-18.25L240.73-18.25Q239.98-18.55 239.03-18.55L239.03-18.55Q237.18-18.55 235.83-17.55 234.48-16.55 234.13-15.15L234.13-15.15Q233.98-14.55 233.03-10.45L233.03-10.45Q232.58-8.05 231.93-5.7L231.93-5.7Q231.93-3.85 233.18-2.83 234.43-1.8 235.83-1.8L235.83-1.8Q237.03-1.8 238.4-2.65 239.78-3.5 240.18-4.4L240.18-4.4ZM273.97-14Q274.47-14 274.77-13.53 275.07-13.05 275.07-12.35L275.07-12.35Q275.07-11.45 274.57-10.45L274.57-10.45Q273.17-7.5 270.57-5.03 267.97-2.55 264.95-1.1 261.92 0.35 259.32 0.35L259.32 0.35Q254.02 0.35 254.02-5.8L254.02-5.8Q254.02-10.1 256.37-19.63 258.72-29.15 263.17-44.9L263.17-44.9Q264.12-48.15 265.25-49.7 266.37-51.25 267.82-51.25L267.82-51.25Q268.87-51.25 269.85-50.53 270.82-49.8 271.47-48.3 272.12-46.8 272.12-44.6L272.12-44.6Q272.12-41.05 270.45-35.6 268.77-30.15 265.42-24.1 262.07-18.05 257.37-12.9L257.37-12.9Q256.52-8.5 256.52-6.35L256.52-6.35Q256.52-3.95 257.5-2.93 258.47-1.9 260.22-1.9L260.22-1.9Q262.67-1.9 265.45-3.55 268.22-5.2 270.52-8 272.82-10.8 273.97-14L273.97-14ZM264.47-41.75Q260.27-26.65 258.12-16.7L258.12-16.7Q261.82-21.35 264.5-26.85 267.17-32.35 268.5-37.15 269.82-41.95 269.82-44.7L269.82-44.7Q269.82-46.25 269.37-47.38 268.92-48.5 267.87-48.5L267.87-48.5Q267.27-48.5 266.45-47.25 265.62-46 264.47-41.75L264.47-41.75ZM300.32-55.4Q304.22-55.4 306.92-53.03 309.62-50.65 309.62-45.85L309.62-45.85Q309.62-45.6 309.42-45.4L309.42-45.4Q307.92-48.9 305.45-50.4 302.97-51.9 299.52-51.9L299.52-51.9Q296.12-51.9 292.6-48.85 289.07-45.8 285.72-40.13 282.37-34.45 279.47-26.7L279.47-26.7Q278.02-22.85 276.92-18.28 275.82-13.7 274.17-6L274.17-6 273.72-3.95Q277.32-8.85 282.67-15.1 288.02-21.35 288.82-21.35L288.82-21.35Q290.47-21.35 291.47-20.35L291.47-20.35Q288.02-17.75 283.02-12.15L283.02-12.15Q283.87-8.85 284.7-6.7 285.52-4.55 286.87-3.03 288.22-1.5 290.22-1.5L290.22-1.5Q291.52-1.5 293.6-3.3 295.67-5.1 297.47-8 299.27-10.9 299.87-14.05L299.87-14.05Q300.32-14.05 300.62-13.48 300.92-12.9 300.92-11.95L300.92-11.95Q300.92-10.3 299.07-7.23 297.22-4.15 294.6-1.78 291.97 0.6 289.57 0.6L289.57 0.6Q286.52 0.6 284.7-1.98 282.87-4.55 281.07-9.9L281.07-9.9Q276.57-4.65 273.67-0.3L273.67-0.3Q273.02 0.7 272.77 0.7L272.77 0.7Q272.37 0.7 271.7 0.08 271.02-0.55 270.97-1L270.97-1Q270.92-2 271.97-7.03 273.02-12.05 274.55-17.9 276.07-23.75 277.32-27.3L277.32-27.3Q282.12-40.8 287.8-48.1 293.47-55.4 300.32-55.4L300.32-55.4ZM324.67-17.65Q325.17-17.5 325.17-16.65L325.17-16.65Q325.17-15.4 324.17-14.08 323.17-12.75 321.44-11.9 319.72-11.05 317.67-11.05L317.67-11.05Q314.92-11.05 312.82-12.55L312.82-12.55Q312.52-11.1 312.07-9.6L312.07-9.6Q311.92-9.05 311.42-7.08 310.92-5.1 310.72-3.55L310.72-3.55Q310.37-2.75 309.32-1.83 308.27-0.9 306.82-0.25 305.37 0.4 303.97 0.4L303.97 0.4Q302.42 0.4 300.97-0.4 299.52-1.2 298.59-2.55 297.67-3.9 297.67-5.55L297.67-5.55Q298.37-7.65 298.82-9.5 299.27-11.35 299.67-13.25L299.67-13.25 300.17-15.75Q300.42-16.9 301.52-18.03 302.62-19.15 304.19-19.88 305.77-20.6 307.37-20.6L307.37-20.6Q307.97-20.6 309.07-20.4L309.07-20.4Q309.22-21.55 309.59-22 309.97-22.45 310.82-22.45L310.82-22.45Q311.32-22.45 311.97-22.3L311.97-22.3Q311.72-20.9 311.72-19.9L311.72-19.9Q311.72-17 313.47-15 315.22-13 318.22-13L318.22-13Q320.47-13 322.09-14.2 323.72-15.4 324.67-17.65L324.67-17.65ZM308.52-4.4Q308.92-6.4 309.67-8.95L309.67-8.95Q310.67-12.3 310.97-14.35L310.97-14.35Q309.87-15.75 309.47-17.75L309.47-17.75Q309.47-17.95 309.39-18.07 309.32-18.2 309.07-18.25L309.07-18.25Q308.32-18.55 307.37-18.55L307.37-18.55Q305.52-18.55 304.17-17.55 302.82-16.55 302.47-15.15L302.47-15.15Q302.32-14.55 301.37-10.45L301.37-10.45Q300.92-8.05 300.27-5.7L300.27-5.7Q300.27-3.85 301.52-2.83 302.77-1.8 304.17-1.8L304.17-1.8Q305.37-1.8 306.74-2.65 308.12-3.5 308.52-4.4L308.52-4.4Z"
                                                                opacity="1" transform="matrix(1,0,0,1,0,0)"
                                                                fill="#ff4057" class="undefined-text-0"
                                                                data-fill-palette-color="primary" id="text-0"></path>
                                                        </svg></g>
                                                </svg></g>
                                            <g transform="matrix(1,0,0,1,100.925708544,60.32521554084568)"><svg
                                                    viewBox="0 0 143.50565145599998 20.411372599882128"
                                                    height="20.411372599882128" width="143.50565145599998">
                                                    <g transform="matrix(1,0,0,1,0,0)"><svg width="143.50565145599998"
                                                            viewBox="2.2699999809265137 -40.43000030517578 296.5899963378906 42.189998626708984"
                                                            height="20.411372599882128" data-palette-color="#dcdcdc">
                                                            <path
                                                                d="M14.58-14.06L14.58 0 12.82 0 12.82-40.43 32.28-40.43 32.28-38.67 14.58-38.67 14.58-36.91 32.28-36.91 32.28-35.16 14.58-35.16 14.58-33.4 32.28-33.4 32.28-31.64 14.58-31.64 14.58-22.85 31.45-22.85 31.45-21.09 14.58-21.09 14.58-19.34 31.45-19.34 31.45-17.58 14.58-17.58 14.58-15.82 31.45-15.82 31.45-14.06 14.58-14.06ZM11.06-40.43L11.06 0 9.3 0 9.3-40.43 11.06-40.43ZM7.54-40.43L7.54 0 5.79 0 5.79-40.43 7.54-40.43ZM4.03-40.43L4.03 0 2.27 0 2.27-40.43 4.03-40.43ZM49.7-15.04L49.7-16.8 60.3-16.8Q62.4-16.8 63.86-18.12 65.33-19.43 65.33-21.83L65.33-21.83Q65.33-23.58 63.8-24.98 62.28-26.37 60.3-26.37L60.3-26.37 45.21-26.37 45.21 0 43.45 0 43.45-28.13 60.3-28.13Q63.01-28.13 65.05-26.22 67.09-24.32 67.09-21.83L67.09-21.83Q67.09-18.73 65.11-16.88 63.13-15.04 60.3-15.04L60.3-15.04 49.7-15.04ZM49.7-11.52L49.7-13.28 60.3-13.28Q63.82-13.28 66.33-15.67 68.85-18.07 68.85-21.83L68.85-21.83Q68.85-25.02 66.28-27.45 63.72-29.88 60.3-29.88L60.3-29.88 41.7-29.88 41.7 0 39.94 0 39.94-31.64 60.3-31.64Q64.45-31.64 67.53-28.7 70.6-25.76 70.6-21.83L70.6-21.83Q70.6-17.43 67.56-14.48 64.52-11.52 60.3-11.52L60.3-11.52 49.7-11.52ZM49.7-8.01L49.7-9.77 60.3-9.77Q63.55-9.77 66.31-11.33 69.06-12.89 70.71-15.67 72.36-18.46 72.36-21.83L72.36-21.83Q72.36-24.88 70.73-27.55 69.09-30.22 66.29-31.81 63.5-33.4 60.3-33.4L60.3-33.4 38.18-33.4 38.18 0 36.42 0 36.42-35.16 60.3-35.16Q63.06-35.16 65.61-34.07 68.16-32.98 70.02-31.19 71.87-29.39 73-26.93 74.12-24.46 74.12-21.83L74.12-21.83Q74.12-17.55 72.17-14.37 70.21-11.18 66.92-9.52L66.92-9.52 70.6 0 68.72 0 65.23-8.81Q64.57-8.59 63.69-8.37L63.69-8.37 66.99 0 65.11 0 61.89-8.08Q61.13-8.01 60.3-8.01L60.3-8.01 63.4 0 61.55 0 58.47-8.01 56.88-8.01 59.84 0 57.98 0 55-8.01 49.7-8.01ZM48.73-22.85L48.73 0 46.97 0 46.97-24.61 60.3-24.61Q61.67-24.61 62.62-23.79 63.57-22.97 63.57-21.83L63.57-21.83Q63.57-18.55 60.3-18.55L60.3-18.55 49.7-18.55 49.7-20.31 60.3-20.31Q61.81-20.31 61.81-21.83L61.81-21.83Q61.81-22.24 61.36-22.55 60.91-22.85 60.3-22.85L60.3-22.85 48.73-22.85ZM91.44-22.55Q89.37-20.48 89.37-17.58 89.37-14.67 91.44-12.61 93.5-10.55 96.41-10.55 99.31-10.55 101.37-12.61 103.44-14.67 103.44-17.58 103.44-20.48 101.37-22.55 99.31-24.61 96.41-24.61 93.5-24.61 91.44-22.55ZM90.19-11.36Q87.62-13.94 87.62-17.58 87.62-21.22 90.19-23.79 92.77-26.37 96.41-26.37 100.04-26.37 102.62-23.79 105.2-21.22 105.2-17.58 105.2-13.94 102.62-11.36 100.04-8.79 96.41-8.79 92.77-8.79 90.19-11.36ZM88.95-25.02Q85.86-21.92 85.86-17.58 85.86-13.23 88.95-10.13 92.04-7.03 96.41-7.03 100.78-7.03 103.86-10.13 106.95-13.23 106.95-17.58 106.95-21.92 103.86-25.02 100.78-28.13 96.41-28.13 92.04-28.13 88.95-25.02ZM85.75-11.4Q84.1-14.23 84.1-17.58 84.1-20.92 85.75-23.75 87.4-26.59 90.23-28.23 93.06-29.88 96.41-29.88 99.75-29.88 102.58-28.23 105.41-26.59 107.06-23.75 108.71-20.92 108.71-17.58 108.71-14.23 107.06-11.4 105.41-8.57 102.58-6.92 99.75-5.27 96.41-5.27 93.06-5.27 90.23-6.92 87.4-8.57 85.75-11.4ZM83.45-23.03Q82.34-20.43 82.34-17.58 82.34-14.72 83.45-12.12 84.57-9.52 86.46-7.63 88.35-5.74 90.95-4.63 93.55-3.52 96.41-3.52 99.26-3.52 101.86-4.63 104.46-5.74 106.35-7.63 108.25-9.52 109.36-12.12 110.47-14.72 110.47-17.58 110.47-20.43 109.36-23.03 108.25-25.63 106.35-27.53 104.46-29.42 101.86-30.53 99.26-31.64 96.41-31.64 93.55-31.64 90.95-30.53 88.35-29.42 86.46-27.53 84.57-25.63 83.45-23.03ZM81.84-11.43Q80.59-14.36 80.59-17.58 80.59-20.8 81.84-23.73 83.1-26.66 85.21-28.77 87.32-30.88 90.25-32.14 93.18-33.4 96.41-33.4 99.63-33.4 102.56-32.14 105.49-30.88 107.6-28.77 109.71-26.66 110.97-23.73 112.23-20.8 112.23-17.58 112.23-14.36 110.97-11.43 109.71-8.5 107.6-6.38 105.49-4.27 102.56-3.02 99.63-1.76 96.41-1.76 93.18-1.76 90.25-3.02 87.32-4.27 85.21-6.38 83.1-8.5 81.84-11.43ZM80.22-24.4Q78.83-21.14 78.83-17.58 78.83-14.01 80.22-10.75 81.61-7.5 83.97-5.14 86.32-2.78 89.58-1.39 92.84 0 96.41 0 99.97 0 103.23-1.39 106.49-2.78 108.85-5.14 111.2-7.5 112.59-10.75 113.98-14.01 113.98-17.58 113.98-21.14 112.59-24.4 111.2-27.66 108.85-30.02 106.49-32.37 103.23-33.76 99.97-35.16 96.41-35.16 92.84-35.16 89.58-33.76 86.32-32.37 83.97-30.02 81.61-27.66 80.22-24.4ZM78.61-10.07Q77.07-13.65 77.07-17.58 77.07-21.51 78.61-25.09 80.15-28.66 82.73-31.25 85.32-33.84 88.9-35.38 92.48-36.91 96.41-36.91 100.34-36.91 103.91-35.38 107.49-33.84 110.08-31.25 112.67-28.66 114.2-25.09 115.74-21.51 115.74-17.58 115.74-13.65 114.2-10.07 112.67-6.49 110.08-3.91 107.49-1.32 103.91 0.22 100.34 1.76 96.41 1.76 92.48 1.76 88.9 0.22 85.32-1.32 82.73-3.91 80.15-6.49 78.61-10.07ZM147.4-35.16L147.4-14.18 145.65-17.38 145.65-35.16 147.4-35.16ZM150.92-35.16L150.92-8.11 149.16-11.08 149.16-35.16 150.92-35.16ZM126.7 0L126.7-20.97 128.46-17.77 128.46 0 126.7 0ZM123.19 0L123.19-27.29 124.94-24.07 124.94 0 123.19 0ZM144.16 0L123.8-35.16 125.85-35.16 146.21 0 144.16 0ZM148.26 0L127.95-35.16 130.02-35.16 150.36 0 148.26 0ZM152.36 0L132.07-35.16 134.12-35.16 152.68-3.05 152.68-35.16 154.44-35.16 154.44 0 152.36 0ZM140.03 0L121.43-32.13 121.43 0 119.67 0 119.67-35.16 121.77-35.16 142.06 0 140.03 0ZM165.25 0L165.25-25.42 167.01-25.42 167.01 0 165.25 0ZM184.58-33.4L158.22-33.4 158.22-35.16 184.58-35.16 184.58-33.4ZM184.58-29.88L158.22-29.88 158.22-31.64 184.58-31.64 184.58-29.88ZM184.58-26.37L158.22-26.37 158.22-28.13 184.58-28.13 184.58-26.37ZM175.8 0L175.8-25.42 177.55-25.42 177.55 0 175.8 0ZM172.28 0L172.28-25.42 174.04-25.42 174.04 0 172.28 0ZM168.76 0L168.76-25.42 170.52-25.42 170.52 0 168.76 0ZM197.23-35.16L197.23 0 195.47 0 195.47-35.16 197.23-35.16ZM193.71-35.16L193.71 0 191.96 0 191.96-35.16 193.71-35.16ZM190.2-35.16L190.2 0 188.44 0 188.44-35.16 190.2-35.16ZM200.74-13.21L200.74-8.79 217.57-8.79 217.57-7.03 200.74-7.03 200.74-5.27 217.57-5.27 217.57-3.52 200.74-3.52 200.74-1.76 217.57-1.76 217.57 0 198.99 0 198.99-35.16 217.57-35.16 217.57-33.4 200.74-33.4 200.74-31.64 217.57-31.64 217.57-29.88 200.74-29.88 200.74-28.13 217.57-28.13 217.57-26.37 200.74-26.37 200.74-22 216.59-22 216.59-20.24 200.74-20.24 200.74-18.48 216.59-18.48 216.59-16.72 200.74-16.72 200.74-14.97 216.59-14.97 216.59-13.21 200.74-13.21ZM249.52-35.16L249.52-14.18 247.76-17.38 247.76-35.16 249.52-35.16ZM253.04-35.16L253.04-8.11 251.28-11.08 251.28-35.16 253.04-35.16ZM228.82 0L228.82-20.97 230.58-17.77 230.58 0 228.82 0ZM225.3 0L225.3-27.29 227.06-24.07 227.06 0 225.3 0ZM246.27 0L225.91-35.16 227.96-35.16 248.32 0 246.27 0ZM250.38 0L230.06-35.16 232.14-35.16 252.48 0 250.38 0ZM254.48 0L234.19-35.16 236.24-35.16 254.79-3.05 254.79-35.16 256.55-35.16 256.55 0 254.48 0ZM242.15 0L223.54-32.13 223.54 0 221.79 0 221.79-35.16 223.89-35.16 244.17 0 242.15 0ZM281.43-10.55L271.69-10.55 271.69-24.61Q271.69-24.61 281.43-24.61L281.43-24.61Q284.14-24.61 286.08-22.56 288.02-20.51 288.02-17.63L288.02-17.63Q288.02-14.65 286.09-12.6 284.16-10.55 281.43-10.55L281.43-10.55ZM273.44-22.85L273.44-12.3 281.43-12.3Q283.41-12.3 284.81-13.84 286.21-15.38 286.21-17.63L286.21-17.63Q286.21-19.78 284.81-21.31 283.41-22.85 281.43-22.85L281.43-22.85 273.44-22.85ZM269.93-26.37L269.93-8.79 281.43-8.79Q284.89-8.79 287.36-11.36 289.83-13.94 289.83-17.63L289.83-17.63Q289.83-21.24 287.35-23.8 284.87-26.37 281.43-26.37L281.43-26.37 269.93-26.37ZM281.43-7.03L268.17-7.03 268.17-28.13 281.43-28.13Q285.6-28.13 288.62-25.04 291.63-21.95 291.63-17.63L291.63-17.63Q291.63-13.21 288.63-10.12 285.63-7.03 281.43-7.03L281.43-7.03ZM266.41-29.88L266.41-5.27 281.43-5.27Q284.65-5.27 287.41-6.91 290.17-8.54 291.8-11.4 293.44-14.26 293.44-17.63L293.44-17.63Q293.44-20.92 291.8-23.75 290.17-26.59 287.4-28.23 284.63-29.88 281.43-29.88L281.43-29.88 266.41-29.88ZM281.43-3.52L264.66-3.52 264.66-31.64 281.43-31.64Q285.11-31.64 288.3-29.76 291.49-27.88 293.37-24.65 295.25-21.41 295.25-17.63L295.25-17.63Q295.25-13.79 293.37-10.53 291.49-7.28 288.3-5.4 285.11-3.52 281.43-3.52L281.43-3.52ZM262.9-33.4L262.9-1.76 281.43-1.76Q285.6-1.76 289.19-3.87 292.78-5.98 294.92-9.64 297.05-13.31 297.05-17.63L297.05-17.63Q297.05-21.88 294.92-25.52 292.78-29.17 289.18-31.29 285.58-33.4 281.43-33.4L281.43-33.4 262.9-33.4ZM281.43 0L281.43 0 261.14 0 261.14-35.16 281.43-35.16Q286.07-35.16 290.08-32.8 294.1-30.44 296.48-26.4 298.86-22.36 298.86-17.63L298.86-17.63Q298.86-14.04 297.46-10.77 296.05-7.5 293.7-5.14 291.34-2.78 288.12-1.39 284.89 0 281.43 0Z"
                                                                opacity="1" transform="matrix(1,0,0,1,0,0)"
                                                                fill="#dcdcdc" class="undefined-text-1"
                                                                data-fill-palette-color="secondary" id="text-1"></path>
                                                        </svg></g>
                                                </svg></g>
                                        </svg></g>
                                </svg></g>
                            <g transform="matrix(1,0,0,1,255.95276773222736,0)"><svg
                                    viewBox="0 0 223.15592962097168 223.15592962097168" height="223.15592962097168"
                                    width="223.15592962097168">
                                    <g data-palette-color="#dcdcdc">
                                        <rect width="60.995954096398926" height="223.15592962097168" fill="#dcdcdc"
                                            stroke="transparent" data-fill-palette-color="accent" x="0"
                                            fill-opacity="1"></rect>
                                        <rect width="60.995954096398926" height="223.15592962097168" fill="#dcdcdc"
                                            stroke="transparent" data-fill-palette-color="accent" x="74.38530987365722"
                                            fill-opacity="0.75"></rect>
                                        <rect width="60.995954096398926" height="223.15592962097168" fill="#dcdcdc"
                                            stroke="transparent" data-fill-palette-color="accent" x="148.77061974731444"
                                            fill-opacity="0.5"></rect>
                                    </g>
                                </svg></g>
                        </svg></g>
                </svg></g>
            <g>
                <path
                    d="M245.816 0c68.262 0 123.6 55.338 123.6 123.6 0 68.262-55.338 123.6-123.6 123.6-46.544 0-87.08-25.727-108.162-63.736l1.286 0c20.974 37.365 60.976 62.614 106.876 62.613 67.642 0 122.477-54.835 122.477-122.477 0-67.642-54.835-122.477-122.477-122.477-45.899 0-85.901 25.248-106.876 62.613l-1.286 0c21.082-38.009 61.617-63.736 108.162-63.736z"
                    fill="#ff4057" stroke="transparent" data-fill-palette-color="tertiary"></path>
            </g>
        </svg></g>
    <defs>
        <mask id="19c3f1b3-88b3-48f2-b65f-879d04033484">
            <rect width="640" height="400" fill="white"></rect>
            <rect width="174.02880000000002" height="64.20606823107332" fill="black" x="232.98559999999998"
                y="167.89696588446333" id="transform-me"
                transform="matrix(1,0,0,1,-148.57422074112307,-28.57422074112307)"></rect>
        </mask>
    </defs>
</svg>